<svg width="24" height="24" viewBox="0 0 24 24" fill="none" xmlns="http://www.w3.org/2000/svg">
<path d="M20.6912 5.45703C20.6912 5.45703 20.6245 5.45696 20.5911 5.49034C19.5563 5.95766 18.6885 6.3583 17.8206 6.72548C16.8526 7.12603 14.783 8.02728 11.9791 9.22895C9.00835 8.06066 6.80528 7.12603 5.83727 6.72548C4.36856 6.09126 3.10013 5.49034 3.10013 5.49034C3.10013 5.49034 3.03338 5.49041 3 5.45703C3 6.9925 3 8.8617 3.13352 11.0314C3.26704 13.5682 3.36719 14.8367 3.76774 16.1385C4.0014 16.9062 4.70237 19.0092 6.47149 21.1121C7.30598 22.1135 8.14048 22.8479 8.7747 23.3152C8.47428 20.044 8.17387 16.7727 7.84007 13.4681C7.47289 13.4014 6.83866 13.1677 6.4381 12.6002C6.40472 12.5335 6.30459 12.4 6.20445 12.1997C5.77051 11.1983 5.77052 9.3958 5.77052 8.86172C6.50487 9.2289 7.20585 9.62948 7.9402 10.03C8.70794 10.464 9.50904 10.8645 10.2768 11.2985C10.4437 12.667 10.6106 14.0356 10.7775 15.4375C11.178 15.8715 11.5786 16.272 12.0125 16.706C12.3463 16.272 12.6801 15.8715 13.0139 15.4375C13.1808 14.069 13.3477 12.7004 13.5146 11.2985C14.2823 10.8645 15.0501 10.464 15.8512 10.03C16.5855 9.62948 17.2865 9.26228 18.0209 8.86172C18.0209 9.3958 18.0209 11.1983 17.5869 12.1997C17.4868 12.4 17.42 12.5335 17.3533 12.6002C16.9527 13.1677 16.3185 13.368 15.9513 13.4681C15.6509 16.7393 15.3505 20.0106 15.0167 23.3152C15.6509 22.8479 16.4854 22.1135 17.3199 21.1121C18.9555 19.1427 19.6231 17.24 20.0236 16.1385C21.5591 11.699 21.0584 7.29291 20.7914 5.45703H20.6912Z" fill="white"/>
<path d="M12.0134 8.09357C14.8507 6.99204 17.6546 5.89044 20.4918 4.78891C19.5238 3.95442 18.1219 2.95307 16.286 2.11858C14.6504 1.35085 13.1483 0.983658 11.98 0.75C11.4126 0.816759 10.6449 0.950225 9.81036 1.21726C9.54332 1.28402 8.60869 1.5845 7.40702 2.11858C5.57114 2.95307 4.16918 3.9878 3.20117 4.78891C6.13858 5.89044 9.076 6.99204 12.0468 8.09357H12.0134Z" fill="white"/>
</svg>
