<svg width="24" height="24" viewBox="0 0 24 24" fill="none" xmlns="http://www.w3.org/2000/svg">
<path d="M5.65482 16.6366C4.79986 18.4133 3.7549 19.1336 3.08993 19.3736C2.94744 19.4217 2.99494 19.6137 3.08993 19.6137C4.75236 19.9018 8.3622 20.8622 10.0721 17.9811C10.6421 16.9728 10.8796 15.8684 10.0721 15.0521C9.21717 14.1877 7.03226 13.7556 5.60732 16.6366H5.65482Z" fill="white"/>
<path d="M20.9017 4.05601C20.9017 4.05601 20.0467 3.38377 16.4369 6.69699C14.0145 8.85778 13.587 9.1939 12.5895 10.2503L12.0195 10.8745C11.3546 11.6428 10.9271 12.3631 10.4996 13.2274C10.8321 13.3714 11.1171 13.5635 11.3546 13.8036C11.5921 14.0437 11.7821 14.2838 11.8771 14.5719C12.732 14.1397 13.397 13.7076 14.2044 13.0353L14.8219 12.4591C15.8669 11.4507 16.1994 11.0186 18.3368 8.56967C21.5666 4.87231 20.9967 4.10403 20.9017 4.05601Z" fill="white"/>
</svg>
