<svg width="24" height="24" viewBox="0 0 24 24" fill="none" xmlns="http://www.w3.org/2000/svg">
<g clip-path="url(#clip0_2930_64523)">
<path d="M11.3885 0.0356922C11.5667 0.107007 11.6736 0.249585 11.7093 0.427872C11.7806 0.855761 11.8518 1.28374 11.8875 1.74729C11.9588 2.49609 11.9589 3.24481 12.0303 3.99361C12.0303 4.38585 11.9232 4.70679 11.7449 5.02771C11.424 5.52691 10.9961 5.99051 10.5682 6.4184C9.74807 7.23852 8.89246 8.02296 8.07234 8.84308C7.64445 9.27097 7.21647 9.77011 6.85989 10.2337C6.64595 10.4833 6.5033 10.8042 6.39633 11.1251C6.2537 11.446 6.32494 11.7313 6.53888 12.0165C6.75283 12.3731 7.07393 12.6228 7.39484 12.8724C8.25062 13.4786 9.21333 13.9421 10.2474 14.1917C10.6396 14.2987 11.0318 14.1917 11.3528 13.9421C11.8163 13.5855 12.1373 13.1576 12.2799 12.5871C12.3512 12.3018 12.2798 12.0166 12.1371 11.767C11.9945 11.5531 11.7806 11.4105 11.531 11.4461C11.1744 11.4818 10.8536 11.553 10.497 11.6244C10.3187 11.6244 10.1761 11.6244 9.99776 11.5531C9.74816 11.4461 9.53424 11.2678 9.35596 11.0538C9.17767 10.8042 9.17767 10.6259 9.35596 10.3763C9.78385 9.73449 10.283 9.16397 10.8892 8.70042C11.0675 8.55779 11.2457 8.48649 11.4596 8.37951C11.6736 8.27254 11.852 8.30824 12.066 8.41521C12.2799 8.55784 12.4938 8.70048 12.7078 8.87877C13.4922 9.59192 14.2766 10.3764 14.8114 11.3034C14.9541 11.5531 15.0612 11.8383 15.1681 12.0879C15.2394 12.2305 15.2394 12.4088 15.1681 12.5871C15.0612 12.8367 14.9541 13.1219 14.8114 13.3715C14.2766 14.3343 13.5991 15.1545 12.8146 15.9033C12.1728 16.5095 11.3883 16.7233 10.5325 16.6164C9.14186 16.4737 7.89397 16.0102 6.64596 15.4397C5.68321 14.9762 4.79181 14.4413 4.00734 13.7281C3.61511 13.3716 3.25843 13.015 3.00883 12.5871C2.83054 12.3018 2.72366 11.981 2.65234 11.66V11.2321C2.79497 10.4833 3.25848 9.91278 3.72202 9.37792C4.11425 8.98569 4.47089 8.55785 4.89878 8.20127C6.36073 6.84629 7.71566 5.41992 8.8567 3.77968C9.74814 2.56733 10.5683 1.31932 11.3171 0H11.531L11.3885 0.0356922Z" fill="white"/>
<path d="M11.8162 23.9296C11.531 23.8583 11.424 23.6443 11.3527 23.3947C11.2101 22.8955 11.0675 22.3606 10.9605 21.8614C10.8535 21.2909 10.8535 20.7204 11.1031 20.1855C11.2457 19.829 11.531 19.5081 11.7806 19.2228C12.4224 18.5097 13.1356 17.8678 13.8487 17.2616C14.9185 16.3345 15.9523 15.4075 16.7725 14.2308C17.0221 13.8742 17.2717 13.482 17.4857 13.1254C17.6639 12.8758 17.6283 12.5905 17.4857 12.3053C17.1647 11.6278 16.737 10.9859 16.3091 10.3797C15.7743 9.59528 15.0967 8.91784 14.4549 8.20469C14.2409 7.95509 13.9913 7.70541 13.7774 7.45581C13.706 7.34883 13.6347 7.24188 13.5634 7.1349C13.4565 6.95662 13.5634 6.74269 13.7417 6.70703C13.8843 6.70703 14.0269 6.70703 14.1695 6.70703C14.4548 6.814 14.74 6.921 14.9896 7.06363C16.4515 7.91941 17.878 8.88218 19.126 10.0945C19.5182 10.4868 19.8748 10.9146 20.2313 11.3781C20.5166 11.6991 20.6948 12.0913 20.8018 12.5192V12.8758C20.6235 13.5176 20.2671 14.0525 19.8749 14.5517C19.5896 14.9083 19.3042 15.2292 19.0189 15.5501C18.0562 16.6555 17.0934 17.7252 16.1664 18.8305C14.7757 20.5421 13.3851 22.2893 11.9945 24.0009H11.7806L11.8162 23.9296Z" fill="white"/>
</g>
<defs>
<clipPath id="clip0_2930_64523">
<rect width="24" height="24" fill="white"/>
</clipPath>
</defs>
</svg>
