<svg width="24" height="24" viewBox="0 0 24 24" fill="none" xmlns="http://www.w3.org/2000/svg">
<path d="M12.1139 23.0668C10.278 21.1642 8.44215 19.2615 6.60626 17.3255C5.57149 18.5605 4.53672 19.7288 3.50195 20.9973V6.37695C9.20988 7.67876 14.8844 7.71214 20.5924 6.37695V20.9973C19.4908 19.7288 18.4227 18.5272 17.3545 17.2922C15.6188 19.1948 13.883 21.1308 12.1473 23.0335L12.1139 23.0668ZM9.57707 16.0905C10.4449 16.9583 11.2794 17.7929 12.0472 18.5606C12.8149 17.7929 13.6494 16.9584 14.4839 16.1239C13.6828 14.8888 12.8817 13.587 12.0138 12.2518C11.1459 13.6204 10.3448 14.8888 9.57707 16.1239V16.0905Z" fill="white"/>
<path d="M21.895 1.5H12.5153C9.04381 1.5 5.57232 1.5 2.10084 1.5C1.90056 1.8338 1.70028 2.13424 1.5 2.46804V3.63635L2.10084 4.50415C8.71001 4.50415 15.3192 4.50415 21.9617 4.50415L22.5626 3.63635V2.46804C22.3623 2.13424 22.162 1.8338 21.9617 1.5H21.895Z" fill="white"/>
</svg>
