<svg width="24" height="24" viewBox="0 0 24 24" fill="none" xmlns="http://www.w3.org/2000/svg">
<path d="M12.182 16.6551C14.6707 16.6551 16.6883 14.6376 16.6883 12.1489C16.6883 9.66012 14.6707 7.64258 12.182 7.64258C9.69327 7.64258 7.67578 9.66012 7.67578 12.1489C7.67578 14.6376 9.69327 16.6551 12.182 16.6551Z" stroke="white" stroke-width="2.62587" stroke-miterlimit="10"/>
<path d="M12.181 19.4246C16.1999 19.4246 19.4578 16.1667 19.4578 12.1478C19.4578 8.12899 16.1999 4.87109 12.181 4.87109C8.16219 4.87109 4.9043 8.12899 4.9043 12.1478C4.9043 16.1667 8.16219 19.4246 12.181 19.4246Z" stroke="white" stroke-width="1.86926" stroke-miterlimit="10"/>
<path d="M22.863 10.212L19.0243 9.34425L21.1273 6.00628L18.3568 3.23571L15.0188 5.33864L14.1509 1.5H10.2121L9.34425 5.33864L6.00628 3.23571L3.23576 6.00628L5.33869 9.34425L1.5 10.212V14.1509L5.33869 15.0187L3.23576 18.3567L6.00628 21.1273L9.34425 19.0243L10.2121 22.863H14.1509L15.0188 19.0243L18.3568 21.1273L21.1273 18.3567L19.0243 15.0187L22.863 14.1509V10.212ZM14.9186 18.7906H9.41102L5.53896 14.9186V9.41097L9.41102 5.53891H14.9186L18.7907 9.41097V14.9186L14.9186 18.7906Z" fill="white"/>
</svg>
