<svg width="24" height="24" viewBox="0 0 24 24" fill="none" xmlns="http://www.w3.org/2000/svg">
<path d="M20.1749 15.2879C18.7062 10.1808 19.5073 5.64111 20.2416 2.97074C19.8745 3.23778 19.2069 3.67171 18.2389 3.90537C17.8049 4.00551 16.8035 4.2392 15.702 3.83864C15.001 3.57161 14.5337 3.10429 13.6658 2.16966C13.1985 1.66896 12.531 0.934631 11.8634 0C11.1958 0.968011 10.5616 1.70234 10.0609 2.16966C9.15961 3.10429 8.72567 3.57161 8.0247 3.83864C6.95655 4.2392 5.95515 4.00551 5.48783 3.90537C4.5532 3.70509 3.85223 3.27116 3.48506 2.97074C4.21941 5.64111 5.02051 10.2141 3.55181 15.2879C3.18463 16.5897 2.71732 17.7246 2.25 18.726C2.91759 19.6272 3.95237 20.8289 5.48783 21.9638C6.92316 23.0319 8.32511 23.6328 9.3265 24C9.3265 20.128 9.3265 16.2893 9.29312 12.4172C8.55876 12.3505 8.02469 12.1502 7.65752 11.9833C7.05668 11.7163 6.25558 11.3157 6.02192 10.5813C5.92178 10.2475 5.92177 9.91375 5.95515 9.57995C5.95515 9.21278 6.0219 8.91229 6.05528 8.67864C6.78963 8.81215 7.55738 8.9791 8.35849 9.146C8.92594 9.27952 9.4934 9.41305 10.0609 9.57995C10.6617 10.4812 11.2291 11.3824 11.83 12.2837C12.4642 11.3824 13.0984 10.4812 13.7326 9.57995C14.2667 9.44643 14.8342 9.27952 15.435 9.146C16.2361 8.94572 17.0038 8.81215 17.7382 8.67864C17.7716 8.87891 17.8383 9.21278 17.8383 9.57995C17.8383 9.88037 17.8383 10.2475 17.7716 10.5813C17.5379 11.349 16.7368 11.7163 16.136 11.9833C15.7688 12.1502 15.2347 12.3505 14.5003 12.4172C14.5003 16.2893 14.5004 20.128 14.467 24C15.4684 23.6328 16.8703 23.0319 18.3056 21.9638C19.8411 20.8289 20.8759 19.6272 21.5435 18.726C21.0428 17.7246 20.6088 16.5563 20.2416 15.2879H20.1749ZM11.8967 9.01245C11.8967 9.01245 11.8967 9.01249 11.8967 9.04587C11.8967 9.04587 11.8967 9.04583 11.8967 9.01245C11.2959 8.37824 10.6951 7.74403 10.0942 7.1432C10.6951 5.80801 11.2959 4.47289 11.8967 3.1377L13.6992 7.1432C13.0984 7.77741 12.4976 8.41162 11.8967 9.01245Z" fill="white"/>
</svg>
