<svg width="24" height="24" viewBox="0 0 24 24" fill="none" xmlns="http://www.w3.org/2000/svg">
<path d="M13.307 1.53341C20.1832 2.3679 26.0914 9.27741 22.3863 16.1536L21.5518 17.4555C21.8188 15.5195 22.2194 13.3164 21.1513 11.5473C20.9176 11.1468 20.5838 10.7796 20.2166 10.4791C20.7173 13.3164 20.4837 16.2872 18.7813 18.6905C13.474 26.3011 0.422488 21.8616 0.756285 12.6822C0.756285 12.6155 0.722919 12.4485 0.823058 12.4485C1.45727 14.6516 3.25974 16.5543 5.32929 17.4889C8.19994 18.7907 12.1721 18.557 14.4086 16.1536C16.2778 14.1508 16.2779 10.1453 13.7076 8.71002C12.8397 8.24271 11.8717 8.14256 10.9037 8.0758C11.805 6.94089 13.3404 6.54036 14.7424 6.54036C12.9399 5.13842 10.3696 4.4374 8.36685 5.87273C6.36407 7.30806 6.4976 10.0118 8.43362 11.3469C9.90233 12.3817 11.5713 12.0814 12.9065 11.0132C12.2723 15.386 6.83142 15.8532 4.2278 12.8157C2.4253 10.6794 2.69233 7.10782 4.2278 4.87138C5.76327 2.63494 8.80078 1.6669 11.4378 1.5H13.307V1.53341Z" fill="white"/>
</svg>
