<svg width="24" height="24" viewBox="0 0 24 24" fill="none" xmlns="http://www.w3.org/2000/svg">
<path d="M20.927 21.2274C20.0591 20.8602 19.258 20.7267 18.7239 20.6933C19.6919 20.1926 20.66 19.6919 21.628 19.1578C21.9284 18.9909 22.1621 18.7906 22.2956 18.557C22.5626 18.123 22.4959 17.6223 22.4625 17.3887C21.9952 13.7503 20.7935 11.1801 20.7935 11.1801C20.0592 9.57786 19.6586 8.71 18.9242 7.64185C17.9896 6.20652 15.9534 3.6363 12.1815 1.5C10.379 2.46801 7.54172 4.30388 5.30528 7.64185C4.47079 8.91028 3.86996 10.1119 3.43603 11.1801C3.43603 11.1801 2.23436 13.7837 1.76704 17.3887C1.76704 17.6223 1.70029 18.0897 1.93395 18.557C2.06747 18.7906 2.30112 18.9909 2.60154 19.1578C3.56955 19.6585 4.53759 20.1592 5.5056 20.6933C4.97153 20.7267 4.1704 20.8602 3.30253 21.2274C2.50142 21.5612 1.90056 21.9951 1.5 22.3289C3.83658 22.6293 6.17318 22.8964 8.50975 23.1968C8.60989 23.1968 8.67666 23.0967 8.67666 23.0967C8.7768 22.9298 8.57653 22.596 8.47639 22.4624C7.6419 21.194 7.24133 20.5932 7.10781 20.3595C7.04105 20.2594 6.77401 19.8922 6.47359 19.3915C5.4722 17.7225 5.43881 16.9547 5.47219 16.5542C5.47219 16.5542 5.4722 16.2872 5.53896 16.0202C5.93952 14.1843 11.2469 10.3122 12.048 9.71137C12.8825 10.3122 18.1898 14.1843 18.557 16.0202C18.6238 16.3206 18.6238 16.5542 18.6238 16.5542C18.6238 16.9213 18.6238 17.6891 17.6224 19.3915C17.322 19.8922 17.0549 20.2927 16.9882 20.3595C16.8547 20.5598 16.4208 21.194 15.6196 22.4624C15.5195 22.6293 15.3192 22.9298 15.4194 23.0967C15.4194 23.0967 15.4527 23.1968 15.5862 23.1968C17.9228 22.8964 20.2594 22.6293 22.596 22.3289C22.1954 21.9951 21.5946 21.5612 20.7935 21.2274H20.927Z" fill="white"/>
<path d="M16.4868 15.4879C15.4186 15.8551 14.8178 15.6882 14.4506 15.4879C13.7496 15.054 13.6161 14.1527 12.6815 13.8189C12.6147 13.8189 12.548 13.7855 12.548 13.7855C12.4812 13.7855 12.1808 13.7188 11.847 13.7855C11.847 13.7855 11.7802 13.7856 11.7135 13.8189C10.7455 14.1527 10.5786 15.0874 9.94437 15.4879C9.57719 15.7216 8.97635 15.8551 7.9082 15.4879C7.9082 15.8551 7.90816 19.7939 10.5785 21.3294C10.9457 21.5296 11.4798 21.7633 12.1474 21.8635C12.8484 21.7633 13.3825 21.5296 13.7496 21.3294C16.4534 19.7939 16.4534 15.8217 16.42 15.4879H16.4868Z" fill="white"/>
</svg>
